/* XPM */
static char *configure_cups_16[] = {
/* columns rows colors chars-per-pixel */
"16 16 101 2 ",
"   c gray4",
".  c #131313",
"X  c #1F1F21",
"o  c #202022",
"O  c #2C2C30",
"+  c #303034",
"@  c #333335",
"#  c #3C3C3F",
"$  c #414146",
"%  c #46464C",
"&  c #484848",
"*  c #4B4B4B",
"=  c #4D4D4E",
"-  c #4F4F56",
";  c #505050",
":  c #515151",
">  c gray32",
",  c #535353",
"<  c gray33",
"1  c #555555",
"2  c gray34",
"3  c #59595B",
"4  c #5A5A5C",
"5  c #5D5D5D",
"6  c #616162",
"7  c #626262",
"8  c gray39",
"9  c #636365",
"0  c #656565",
"q  c gray40",
"w  c #676767",
"e  c #686868",
"r  c #6A6A6C",
"t  c #6F6F6F",
"y  c #717171",
"u  c #747474",
"i  c #767676",
"p  c #797979",
"a  c gray48",
"s  c #7E7E7E",
"d  c #838385",
"f  c gray52",
"g  c #888888",
"h  c gray55",
"j  c gray57",
"k  c #929292",
"l  c #939393",
"z  c #939395",
"x  c #959597",
"c  c #989898",
"v  c gray60",
"b  c #9A9A9A",
"n  c #99999C",
"m  c gray61",
"M  c #9C9C9E",
"N  c #A0A0A0",
"B  c #A1A1A3",
"V  c gray64",
"C  c #A9A9A9",
"Z  c #AAAAAA",
"A  c #ABABB0",
"S  c gray69",
"D  c #B4B4B4",
"F  c gray71",
"G  c #B6B6B6",
"H  c #B7B7B7",
"J  c #BBBBBB",
"K  c #BABABF",
"L  c gray74",
"P  c gray75",
"I  c #BEBEC0",
"U  c #C0C0C0",
"Y  c #C6C6C6",
"T  c gray78",
"R  c #C6C6CA",
"E  c #CBCBCB",
"W  c #CECECE",
"Q  c #CECED2",
"!  c gray82",
"~  c #D1D1D2",
"^  c LightGray",
"/  c #D3D3D6",
"(  c gray83",
")  c #D5D5D5",
"_  c #D5D5D6",
"`  c gray84",
"'  c #D4D4D8",
"]  c #E0E0E3",
"[  c gray90",
"{  c #E5E5E6",
"}  c #E7E7E9",
"|  c #E9E9E9",
" . c #E8E8EA",
".. c #E9E9EB",
"X. c #ECECEC",
"o. c #ECECED",
"O. c #EEEEEE",
"+. c #F9F9F9",
"@. c #FEFEFE",
"#. c gray100",
"$. c None",
/* pixels */
"$.$.$.$.$.$.$.$.$.$.$.$.$.$.$.$.",
"$.$.$.$.#.#.#.#.#.#.#.#.$.$.$.$.",
"$.$.$.$.+.#._ l p p 8 { $.$.$.$.",
"$.$.$.c .._ 1 ; P | ~ } c $.$.$.",
"$.$.$.c ' f = { ..| ] ' c $.$.$.",
"$.Z U c A 4 n / ' Q R K c U Z $.",
"$.U T N p i i y y i p p N T U $.",
"$.O.O.c 1 1 1 1 1 1 1 1 c O.O.$.",
"$.{ { h & & 1 0 0 ; & & h { { $.",
"$.~ ( U H H c x l c H H U _ T $.",
"f ~ W e ; 1 ; ; ; ; 1 1 0 W D g ",
"u U H + X + X O $ - - % # D P t ",
"$.$., x   V I x r 8 8 3 M * $.$.",
"$.$.$.J N . 5 Z S s & J J $.$.$.",
"$.$.$.T #.O.n l 8 g O.#.E $.$.$.",
"$.$.$.$.$.$.$.$.$.$.$.$.$.$.$.$."
};
