/* XPM */
static char *configure_cups___[] = {
/* columns rows colors chars-per-pixel */
"16 16 101 2",
"   c #0A0A0A",
".  c #131313",
"X  c #1F1F21",
"o  c #202022",
"O  c #2C2C30",
"+  c #303034",
"@  c #333335",
"#  c #3C3C3F",
"$  c #414146",
"%  c #46464C",
"&  c #484848",
"*  c #4B4B4B",
"=  c #4D4D4E",
"-  c #4F4F56",
";  c #505050",
":  c #515151",
">  c #525252",
",  c #535353",
"<  c #545454",
"1  c #555555",
"2  c #575757",
"3  c #59595B",
"4  c #5A5A5C",
"5  c #5D5D5D",
"6  c #616162",
"7  c #626262",
"8  c #636363",
"9  c #636365",
"0  c #656565",
"q  c #666666",
"w  c #676767",
"e  c #686868",
"r  c #6A6A6C",
"t  c #6F6F6F",
"y  c #717171",
"u  c #747474",
"i  c #767676",
"p  c #797979",
"a  c #7A7A7A",
"s  c #7E7E7E",
"d  c #838385",
"f  c #848484",
"g  c #878787",
"h  c #888888",
"j  c #8C8C8C",
"k  c #919191",
"l  c #929292",
"z  c #939393",
"x  c #939395",
"c  c #959597",
"v  c #989898",
"b  c #999999",
"n  c #9A9A9A",
"m  c #99999C",
"M  c #9C9C9C",
"N  c #9C9C9E",
"B  c #A0A0A0",
"V  c #A1A1A3",
"C  c #A3A3A3",
"Z  c #A9A9A9",
"A  c #AAAAAA",
"S  c #ABABB0",
"D  c #B0B0B0",
"F  c #B4B4B4",
"G  c #B5B5B5",
"H  c #B6B6B6",
"J  c #B7B7B7",
"K  c #BBBBBB",
"L  c #BABABF",
"P  c #BDBDBD",
"I  c #BFBFBF",
"U  c #BEBEC0",
"Y  c #C0C0C0",
"T  c #C6C6C6",
"R  c #C6C6CA",
"E  c #C8C8C8",
"W  c #CBCBCB",
"Q  c #CECECE",
"!  c #CECED2",
"~  c #D1D1D1",
"^  c #D1D1D2",
"/  c #D3D3D3",
"(  c #D3D3D6",
")  c #D5D5D5",
"_  c #D5D5D6",
"`  c #D6D6D6",
"'  c #D4D4D8",
"]  c #E0E0E3",
"[  c #E5E5E5",
"{  c #E5E5E6",
"}  c #E7E7E9",
"|  c #E9E9E9",
" . c #E8E8EA",
".. c #E9E9EB",
"X. c #ECECEC",
"o. c #ECECED",
"O. c #EEEEEE",
"+. c #F9F9F9",
"@. c #FEFEFE",
"#. c #FFFFFF",
"$. c None",
/* pixels */
"$.$.$.$.$.$.$.$.$.$.$.$.$.$.$.$.",
"$.$.$.$.#.#.#.#.#.#.#.#.$.$.$.$.",
"$.$.$.$.+.#.) x a a 6 { $.$.$.$.",
"$.$.$.v ..) 1 ; I | ~ } v $.$.$.",
"$.$.$.v ' f = { O.} ] ( v $.$.$.",
"$.A Y v S 4 m ( ( ! R L v Y A $.",
"$.Y E B a i i y y u a a B E Y $.",
"$.O.O.v 1 1 1 1 1 1 1 1 v O.O.$.",
"$.{ { j & * 1 0 0 , & & j { { $.",
"$./ ) Y F J v c l v J H U ) T $.",
"f ~ Q 0 < ; ; ; ; ; 1 1 0 Q H f ",
"i Y H @ X @ o O $ - - % # F I y ",
"$.$.; x   B U c r 6 9 3 N * $.$.",
"$.$.$.K C . 5 A D s * K K $.$.$.",
"$.$.$.E #.X.N l 6 h O.#.W $.$.$.",
"$.$.$.$.$.$.$.$.$.$.$.$.$.$.$.$."
};
