/* XPM */
static char *configure_cups___[] = {
/* columns rows colors chars-per-pixel */
"16 16 108 2",
"   c gray4",
".  c #131313",
"X  c #1F1F21",
"o  c #202022",
"O  c #2C2C2F",
"+  c #303033",
"@  c #323235",
"#  c #3B3B3E",
"$  c #414146",
"%  c gray28",
"&  c #46464B",
"*  c #4B4B4B",
"=  c #4F4F55",
"-  c #505050",
";  c #515151",
":  c gray32",
">  c #535353",
",  c #555555",
"<  c #585858",
"1  c gray35",
"2  c #5A5A5B",
"3  c #5D5D5D",
"4  c #5C5C5E",
"5  c gray38",
"6  c #626262",
"7  c gray39",
"8  c #636364",
"9  c gray40",
"0  c #676767",
"q  c #6A6A6B",
"w  c #6F6F6F",
"e  c gray44",
"r  c #717171",
"t  c gray45",
"y  c #747474",
"u  c gray46",
"i  c #767676",
"p  c gray47",
"a  c #797979",
"s  c gray48",
"d  c #7E7E7E",
"f  c #848484",
"g  c #868686",
"h  c #868687",
"j  c #888888",
"k  c #8B8B8B",
"l  c gray55",
"z  c #909090",
"x  c #929292",
"c  c #939393",
"v  c #939395",
"b  c #959597",
"n  c #979797",
"m  c #989898",
"M  c gray60",
"N  c #9A9A9A",
"B  c gray61",
"V  c #9C9C9E",
"C  c gray62",
"Z  c #A0A0A0",
"A  c #A1A1A2",
"S  c #A0A0A3",
"D  c gray64",
"F  c #A5A5A5",
"G  c #A9A9A9",
"H  c gray69",
"J  c #B2B2B2",
"K  c #B0B0B5",
"L  c #B4B4B4",
"P  c gray71",
"I  c #B6B6B6",
"U  c #B7B7B7",
"Y  c #BBBBBB",
"T  c gray74",
"R  c #BEBEBF",
"E  c gray75",
"W  c #C0C0C0",
"Q  c gray76",
"!  c #C6C6C6",
"~  c gray79",
"^  c #CBCBCB",
"/  c #CDCDCD",
"(  c #CDCDD1",
")  c #D0D0D0",
"_  c LightGray",
"`  c #D5D5D5",
"'  c gray84",
"]  c #D7D7D8",
"[  c #D8D8DB",
"{  c #DADADA",
"}  c #D8D8DC",
"|  c #DEDEE1",
" . c #E0E0E3",
".. c #E4E4E4",
"X. c #E5E5E7",
"o. c gray92",
"O. c #EAEAEC",
"+. c #ECECEC",
"@. c gray93",
"#. c #EDEDEE",
"$. c #EEEEEE",
"%. c #EFEFF0",
"&. c #F5F5F6",
"*. c #F6F6F7",
"=. c #F8F8F9",
"-. c #FEFEFE",
";. c gray100",
":. c None",
/* pixels */
":.:.:.:.:.:.:.:.:.:.:.:.:.:.:.:.",
":.:.:.:.;.;.;.;.;.;.;.;.:.:.:.:.",
":.:.:.:.=.;.` v p p 6 o.:.:.:.:.",
":.:.:.m o.[ , ; Q $.[ *.m :.:.:.",
":.:.:.m } j ; %.=.*.&.X.m :.:.:.",
":.k J m K 4 S { | | ] ( m Q J :.",
":.F Q C p u t t t t u p Z ~ Q :.",
":.$.$.m , , , , , > , , m $.$.:.",
":.....l % % ; ; < > & % k ....:.",
":._ ` T I I m l z V U I W ` ! :.",
"g / / 9 ; ; ; ; = - ; > 9 / J g ",
"u Q I @ X @ o O $ = ; & # L T e ",
":.:.; v   Z Q b q 6 9 < C * :.:.",
":.:.:.Y Z . 4 G G d * Y Y :.:.:.",
":.:.:.~ ;.o.C x 9 k $.;.~ :.:.:.",
":.:.:.:.:.:.:.:.:.:.:.:.:.:.:.:."
};
