/* XPM */
static char *configure-cups[] = {
/* columns rows colors chars-per-pixel */
"32 32 238 2",
"   c black",
".  c gray1",
"X  c #130F0F",
"o  c #111111",
"O  c gray9",
"+  c #181818",
"@  c #191919",
"#  c gray12",
"$  c #371617",
"%  c #3F1314",
"&  c #3B181A",
"*  c #222222",
"=  c gray14",
"-  c #252525",
";  c #292224",
":  c #2A2224",
">  c #2D2223",
",  c #2C2224",
"<  c #28282A",
"1  c #2A2A2C",
"2  c #2E2929",
"3  c #302223",
"4  c #3F3F3F",
"5  c #450F10",
"6  c #411112",
"7  c #4D1C1C",
"8  c #550E0F",
"9  c #511B1B",
"0  c #5D1717",
"q  c #472A2A",
"w  c #4E2122",
"e  c #4F3739",
"r  c #592122",
"t  c #553A3A",
"y  c #6B0C0D",
"u  c #7B0707",
"i  c #701313",
"p  c #414141",
"a  c #434040",
"s  c #444444",
"d  c gray27",
"f  c #464646",
"g  c gray28",
"h  c #484848",
"j  c #494949",
"k  c gray30",
"l  c gray31",
"z  c #53474C",
"x  c #515151",
"c  c gray32",
"v  c #555555",
"b  c gray34",
"n  c #585858",
"m  c #5B5B5B",
"M  c #5D5D5D",
"N  c #634949",
"B  c #604E50",
"V  c gray40",
"C  c #686868",
"Z  c #6A6A6A",
"A  c gray42",
"S  c #6D6D6D",
"D  c gray43",
"F  c #7C6A6A",
"G  c #7D6B6B",
"H  c #7E6C6C",
"J  c #7F6E6E",
"K  c gray46",
"L  c gray47",
"P  c #797979",
"I  c gray48",
"U  c #7B7B7B",
"Y  c #7C7C7C",
"T  c gray49",
"R  c #7E7E7E",
"E  c gray50",
"W  c #8E0909",
"Q  c #8C0D0D",
"!  c #8F0E0E",
"~  c #990606",
"^  c #9A0707",
"/  c #9F0303",
"(  c #9F0404",
")  c #A50101",
"_  c #A70101",
"`  c #AE0000",
"'  c #B10000",
"]  c #B50000",
"[  c #BD0000",
"{  c #807171",
"}  c #837474",
"|  c #857A7A",
" . c #8A7D7D",
".. c #C10000",
"X. c #C90000",
"o. c #CB0000",
"O. c #CE0000",
"+. c #CF0000",
"@. c #D20000",
"#. c #D50000",
"$. c #D70000",
"%. c #DF0000",
"&. c #E80000",
"*. c #EF0000",
"=. c #F10000",
"-. c #FD0000",
";. c red",
":. c #808080",
">. c #808081",
",. c #838383",
"<. c gray53",
"1. c #898989",
"2. c gray54",
"3. c #8B8B8B",
"4. c gray55",
"5. c gray56",
"6. c #898992",
"7. c #8A8A93",
"8. c #929292",
"9. c #939393",
"0. c #959595",
"q. c #979797",
"w. c #9E9494",
"e. c #989898",
"r. c gray60",
"t. c gray61",
"y. c #9D9D9D",
"u. c gray62",
"i. c #9F9F9F",
"p. c #A0A0A0",
"a. c gray63",
"s. c #A2A2A2",
"d. c gray64",
"f. c #A4A4A4",
"g. c #A5A5A5",
"h. c #A7A7A7",
"j. c #A8A4A4",
"k. c #A9A9A9",
"l. c #A9A9AA",
"z. c #AAAAAA",
"x. c gray67",
"c. c #ACACAC",
"v. c #AEAEAE",
"b. c #AFAFAF",
"n. c #B1B1B1",
"m. c #B2B2B2",
"M. c gray70",
"N. c #B4B4B4",
"B. c gray71",
"V. c #B6B6B7",
"C. c #B3B3B8",
"Z. c gray73",
"A. c #BBBBBB",
"S. c #BABABF",
"D. c #BCBCBC",
"F. c gray74",
"G. c gray",
"H. c gray75",
"J. c #BFBFC4",
"K. c #C0C0C0",
"L. c #C1C1C1",
"P. c #C3C3C3",
"I. c #C0C0C5",
"U. c gray77",
"Y. c #C5C5C5",
"T. c gray78",
"R. c #C5C5CA",
"E. c #C6C6CB",
"W. c #C7C7CB",
"Q. c #C8C8C8",
"!. c gray79",
"~. c #CACACA",
"^. c #CBCBCB",
"/. c #CACACE",
"(. c gray80",
"). c #CDCDCD",
"_. c #CECECE",
"`. c #CECECF",
"'. c gray81",
"]. c #CCCCD0",
"[. c #CDCDD1",
"{. c #CECED2",
"}. c #D0D0D0",
"|. c gray82",
" X c #D2D2D2",
".X c LightGray",
"XX c #D0D0D4",
"oX c #D2D2D6",
"OX c #D3D3D6",
"+X c #D3D3D7",
"@X c gray83",
"#X c #D5D5D5",
"$X c #D4D4D7",
"%X c gray84",
"&X c #D7D7D7",
"*X c #D8D8D8",
"=X c gray85",
"-X c #D8D8DB",
";X c #D8D8DC",
":X c #DBDBDE",
">X c #DDDDDD",
",X c #DCDCDF",
"<X c #DEDEDF",
"1X c #DFDFDF",
"2X c #DEDEE1",
"3X c #DFDFE2",
"4X c gray88",
"5X c #E0E0E2",
"6X c #E0E0E3",
"7X c gray89",
"8X c #E1E1E4",
"9X c #E4E4E4",
"0X c #E4E4E6",
"qX c #E5E5E7",
"wX c #E7E7E8",
"eX c #E7E7E9",
"rX c gray91",
"tX c #E8E8EA",
"yX c #EAEAEB",
"uX c #EAEAEC",
"iX c #EBEBED",
"pX c #ECECED",
"aX c #EEEEEE",
"sX c #EFEFF0",
"dX c #F2F2F3",
"fX c #F2F2F4",
"gX c #F5F5F6",
"hX c #F6F6F7",
"jX c #F7F7F8",
"kX c #F8F8F8",
"lX c #F8F8F9",
"zX c #FAFAFB",
"xX c #FBFBFB",
"cX c gray99",
"vX c #FDFDFD",
"bX c #FEFEFE",
"nX c gray100",
"mX c None",
/* pixels */
"mXmXmXmXmXmXmXmXmXmXmXmXmXmXmXmXmXmXmXmXmXmXmXmXmXmXmXmXmXmXmXmX",
"mXmXmXmXmXmXmX                                    mXmXmXmXmXmXmX",
"mXmXmXmXmXmXmX  nXnXnXnXnXnXnXnXnXnXnXnXnXnXnXnX  mXmXmXmXmXmXmX",
"mXmXmXmXmXmXmX  nXnXnXnXnXnXnXnXnXnXnXnXnXnXnXnX  mXmXmXmXmXmXmX",
"mXmXmXmXmXmXmX  gXnXnXnXnXnXnXnXnXnXnXnXnXnXnXnX  mXmXmXmXmXmXmX",
"mXmXmXmXmXmXmX  dXzXnXnXnXnXnXnXnXnXnXnXnXnXnXzX  mXmXmXmXmXmXmX",
"mXmXmXmXmXmX8.8.uXdXzXzXnXnXnXnXnXnXnXnXnXnXfXdX8.8.mXmXmXmXmXmX",
"mXmXmXmXmXmX1.8.8XeXaXfXzXzXzXnXnXnXzXzXhXfXdXeX8.1.mXmXmXmXmXmX",
"mXmXmXmXmXmX0.8.-X3XwXuXsXfXgXgXgXgXgXsXsXuX9X3X8.0.mXmXmXmXmXmX",
"mXmXmXmXmXmX0.3.[.#X-X3X8XwXuXuXsXiXuXwX8X3X2X#X3.0.mXmXmXmXmXmX",
"mX:.1.i.m.F.m.<.J.R.[.$X;X2X3X3X3X3X3X2X-X+X[.R.<.m.K.F.m.i.:.mX",
"mX1.0.z.F.F.z.K C.J.J.E.].{.{..X+X+X.X[./.E.J.J.K m.K.K.F.z.0.mX",
"mX<.y.m.F.K.b.k h h h d d d d s s s h s d j j j k B.U.K.F.m.y.mX",
"mXK.U.|.#X&XU.|.|.|.|.|..X.X.X.X.X.X.X.X|.|.|.|._._.&X#X#X|.Q.mX",
"mX7XaXaXaXaX|.n b c b b b b c b v v c v b c c b n &XaXaXaXaX7XmX",
"mX9XaXaXaXaX_.b c b b c c b b c v v v v c b b b b |.aXaXaXaX9XmX",
"mX1XrXrXeXeXU.x l l l l l l l l l l l l l l l l x W.qXrXrXrX4XmX",
"mX&X1X1X4X5XA.a 4 4 4 a 4 4 4 4 4 4 4 4 4 4 4 4 a K.1X7X4X4X&XmX",
"mXK.Q.(.(._.H.y.y.y.i.i.i.g.g.g.f.f.f.f.f.i.i.i.y.U.|.{._._.U.mX",
"mX#X>X>X>X>X&X|.|..X.X|..X|.|.|..X.X|..X|..X.X.X|.&X>X>Xz.#X#XmX",
"  K.#X#X@X#Xc.:.:.R R Y U U U K L L P U U U U E E x.#X.XB.|.U.  ",
"  m.Q._.(.U.O o o o o o o o o o o o o o o o o o o O U._.e.F.m.  ",
"  g.U.U.U.b.* 1 1 1 : r r w 3 > : , , , : < 1 1 1 * b.U.A.U.g.  ",
"  q.A.F.A.h.c 6.7.6.& ;.;.@.y 8 5 % % $ z 6.7.7.6.c h.A.A.A.e.  ",
"  n Z Z Z Z V E.R.E.e %.;.;.;.;.;.;.;.;.~ v E.E.R.V Z V Z D M   ",
"mX        # Z eXeXeX[.q i ! ^ ) ` ] *.;.;.9 3XeXeXA @           ",
"mXmXmXmX  - Y fXgXsXb.z.:.S m a 2 X / ;.;.! B.gXhXU =   mXmXmXmX",
"mXmXmXmX  + R nXcX .u / ( ( ) ` [ X.*.;.;.^ b.zXnXY +   mXmXmXmX",
"mXmXmXmX  o 3.nXnXN &.;.;.;.;.;.;.;.;.;.;.7 aXnXnX3.o   mXmXmXmX",
"mXmXmXmX    e.nXnXt +.#.#.$.$.#.@.+.X...0 w.nXnXnXe.    mXmXmXmX",
"mXmXmXmX    <.'._.j.G G G G G H J { } | m.|.|._._.1.    mXmXmXmX",
"mXmXmXmXmX                                            mXmXmXmXmX"
};
