/* XPM */
static char *configure_cups[] = {
/* columns rows colors chars-per-pixel */
"32 32 241 2 ",
"   c #000000",
".  c #040404",
"X  c #050505",
"o  c #060606",
"O  c #0B0B0B",
"+  c #0C0C0D",
"@  c #0F0F0F",
"#  c #111111",
"$  c #121212",
"%  c #161616",
"&  c #171717",
"*  c #181819",
"=  c #1B1B1B",
"-  c #1D1D1D",
";  c #1D1D1E",
":  c #1E1E1E",
">  c #202020",
",  c #212121",
"<  c #222222",
"1  c #222223",
"2  c #232323",
"3  c #232324",
"4  c #262626",
"5  c #2B2B2B",
"6  c #2A2A2C",
"7  c #2B2B2D",
"8  c #2F2F2F",
"9  c #2F2F31",
"0  c #313132",
"q  c #323232",
"w  c #343434",
"e  c #373737",
"r  c #393939",
"t  c #39393A",
"y  c #3A3A3A",
"u  c #3B3B3B",
"i  c #3B3B3C",
"p  c #3B3B3F",
"a  c #3D3D3D",
"s  c #404040",
"d  c #414141",
"f  c #414142",
"g  c #424242",
"h  c #434344",
"j  c #444444",
"k  c #454545",
"l  c #464646",
"z  c #474747",
"x  c #484848",
"c  c #494949",
"v  c #4A4A4A",
"b  c #4B4B4B",
"n  c #4E4E4E",
"m  c #4F4F53",
"M  c #505050",
"N  c #515151",
"B  c #535353",
"V  c #545455",
"C  c #555555",
"Z  c #545456",
"A  c #555556",
"S  c #565657",
"D  c #575757",
"F  c #535358",
"G  c #545459",
"H  c #585858",
"J  c #5A5A5A",
"K  c #5C5C5C",
"L  c #5E5E5E",
"P  c #5F5F5F",
"I  c #616161",
"U  c #626262",
"Y  c #636364",
"T  c #646466",
"R  c #656566",
"E  c #666666",
"W  c #676767",
"Q  c #676769",
"!  c #686868",
"~  c #686869",
"^  c #696969",
"/  c #6A6A6A",
"(  c #6D6D6D",
")  c #6E6E6E",
"_  c #6F6F6F",
"`  c #6A6A71",
"'  c #707070",
"]  c #767676",
"[  c #777777",
"{  c #797979",
"}  c #7A7A7A",
"|  c #7B7B7B",
" . c #7C7C7C",
".. c #7D7D7D",
"X. c #7C7C7E",
"o. c #7E7E7E",
"O. c #7F7F7F",
"+. c #7C7C80",
"@. c #7F7F81",
"#. c #808080",
"$. c #818181",
"%. c #838383",
"&. c #848484",
"*. c #848485",
"=. c #858585",
"-. c #8A8A8B",
";. c #8B8B8B",
":. c #8A8A8E",
">. c #8C8C8C",
",. c #8C8C8E",
"<. c #8E8E8E",
"1. c #8F8F8F",
"2. c #888891",
"3. c #8D8D91",
"4. c #8D8D96",
"5. c #8F8F98",
"6. c #939393",
"7. c #959595",
"8. c #969697",
"9. c #979797",
"0. c #999999",
"q. c #9A9A9A",
"w. c #9B9B9B",
"e. c #9C9C9C",
"r. c #9D9D9D",
"t. c #9C9C9F",
"y. c #9E9E9E",
"u. c #9F9F9F",
"i. c #A0A0A0",
"p. c #A1A1A1",
"a. c #A2A2A2",
"s. c #A4A4A4",
"d. c #A5A5A5",
"f. c #A5A5A6",
"g. c #A6A6A7",
"h. c #A7A7A7",
"j. c #A8A8A8",
"k. c #AAAAAB",
"l. c #ACACAC",
"z. c #ADADAD",
"x. c #AEAEAE",
"c. c #AFAFAF",
"v. c #ADADB1",
"b. c #B1B1B1",
"n. c #B2B2B2",
"m. c #B3B3B3",
"M. c #B0B0B6",
"N. c #B4B4B4",
"B. c #B5B5B5",
"V. c #B6B6B6",
"C. c #B7B7B7",
"Z. c #B5B5B8",
"A. c #B7B7BC",
"S. c #B9B9B9",
"D. c #BABABA",
"F. c #BBBBBC",
"G. c #BCBCBC",
"H. c #BDBDBD",
"J. c #BFBFBF",
"K. c #C0C0BF",
"L. c #BCBCC2",
"P. c #BDBDC2",
"I. c #C0C0C0",
"U. c #C1C1C1",
"Y. c #C2C2C2",
"T. c #C3C3C3",
"R. c #C1C1C6",
"E. c #C4C4C4",
"W. c #C5C5C5",
"Q. c #C6C6C6",
"!. c #C4C4C9",
"~. c #C5C5CA",
"^. c #C9C9C9",
"/. c #CACACA",
"(. c #CBCBCB",
"). c #C8C8CD",
"_. c #CACACE",
"`. c #CBCBCF",
"'. c #CCCCCC",
"]. c #CDCDCD",
"[. c #CCCCCE",
"{. c #CECECE",
"}. c #CFCFCF",
"|. c #CCCCD0",
" X c #CECED2",
".X c #CFCFD3",
"XX c #D1D1D1",
"oX c #D2D2D2",
"OX c #D2D2D3",
"+X c #D3D3D3",
"@X c #D1D1D5",
"#X c #D3D3D6",
"$X c #D4D4D4",
"%X c #D4D4D5",
"&X c #D5D5D5",
"*X c #D4D4D7",
"=X c #D6D6D6",
"-X c #D7D7D7",
";X c #D6D6DA",
":X c #D7D7DA",
">X c #D8D8D8",
",X c #D9D9D9",
"<X c #D8D8DB",
"1X c #DADADA",
"2X c #DADADD",
"3X c #DDDDDD",
"4X c #DDDDE0",
"5X c #DEDEE0",
"6X c #E0E0E0",
"7X c #E1E1E3",
"8X c #E3E3E3",
"9X c #E3E3E5",
"0X c #E3E3E6",
"qX c #E4E4E4",
"wX c #E5E5E6",
"eX c #E5E5E7",
"rX c #E6E6E8",
"tX c #E9E9E9",
"yX c #E8E8EA",
"uX c #E9E9EB",
"iX c #EAEAEB",
"pX c #EAEAEC",
"aX c #ECECEC",
"sX c #ECECED",
"dX c #EDEDEF",
"fX c #EEEEEE",
"gX c #EFEFF0",
"hX c #F1F1F2",
"jX c #F2F2F3",
"kX c #F2F2F4",
"lX c #F3F3F4",
"zX c #F6F6F7",
"xX c #F7F7F7",
"cX c #F8F8F9",
"vX c #F9F9F9",
"bX c #FAFAFA",
"nX c #FAFAFB",
"mX c #FDFDFD",
"MX c #FEFEFE",
"NX c #FFFFFF",
"BX c None",
/* pixels */
"BXBXBXBXBXBXBXBXBXBXBXBXBXBXBXBXBXBXBXBXBXBXBXBXBXBXBXBXBXBXBXBX",
"BXBXBXBXBXBXBXBXBXBXBXBXBXBXBXBXBXBXBXBXBXBXBXBXBXBXBXBXBXBXBXBX",
"BXBXBXBXBXBXBXBXNXNXNXNXNXNXNXNXNXNXNXNXNXNXNXNXBXBXBXBXBXBXBXBX",
"BXBXBXBXBXBXBXBXNXNXNXNXNXNXNXNXNXNXNXNXNXNXNXNXBXBXBXBXBXBXBXBX",
"BXBXBXBXBXBXBXBXcXNXNXNXNXNXNXB.q.c.S.cXb.{.NXcXBXBXBXBXBXBXBXBX",
"BXBXBXBXBXBXBXBXlXcXNXNXq.Y.P c ! H e <   . u.lXBXBXBXBXBXBXBXBX",
"BXBXBXBXBXBXBX6.uXhXxX@X6.f   0 I =.G.fX8.B.qXrX6.BXBXBXBXBXBXBX",
"BXBXBXBXBXBXBX1.8XyXfXh.=.  : lXcXcXcXxXlXfXuX0X1.BXBXBXBXBXBXBX",
"BXBXBXBXBXBXBX6.;X3X{.h : & J.lXlXlXgXuXuXqX5X;X6.BXBXBXBXBXBXBX",
"BXBXBXBXBXBXBX1._.@XZ Z o @X0XqXrXqX0X0X5X>X@X_.1.BXBXBXBXBXBXBX",
"BXBXq.c.J.J.B.$.L.v.@.f f ;X3X>X2X2X;X*X.X|.!.L.$.B.Y.J.c.q.BXBX",
"BXBXs.S.J.Y.c.] v.3.:.0 X._._._.|._.|.~.P.L.A.m.] b.Y.J.S.s.BXBX",
"BXBXc.S.Y.Q.b.n b c z z z l l l h l l l z z z z n B.Q.Y.J.c.BXBX",
"BXQ.{.$X$X>X{.{.OXOXOX+X+X+X+X+X@XOX+X+XOX+X+XXX{.(.>X$XOX{.Q.BX",
"BX8XfXfXfXfX$XH V V V D C C C C D V V V V D V V H $XfXfXfXfX8XBX",
"BXqXfXfXfXfX{.H V V V V C C C C C V D V V D V V H $XfXfXfXfXqXBX",
"BX6XtXtXtXyXQ.M M M M M B V I I U U D M M M M n M (.tXtXtXtX6XBX",
"BX,X6X6X6X6XG.f d d d d f w u u y r 8 d d f d d f K.6X6X6X6X$XBX",
"BXY.^.(.'.'.J.w.w.w.u.u.-.P I ) _ L L >.i.i.i.u.u.Y.XX{.{.XXQ.BX",
"BX$X3X3X3X3X,XOXOX+XXXOXXXOXOXOX+X+XXX+XOXOXOXOXOX,X3X3XK.$X$XBX",
"BXY.$X$X@X$Xc.#.#.#.} #.X.{ { { { } X.} ......@...c.$XOXb.{.Q.BX",
"BXb.{.{.{.Q.& $ # # # # $ $ $ $ # # $ $ $ $ $ $ $ & Q.{.Y.J.b.BX",
"BXs.Q.Y.Y.c.< < 1 < < < 1 1 6 6 5 5 5 5 6 5 5 6 5 < b.Q.S.Q.s.BX",
"BXq.S.J.J.s.Z =   O V 0 +   + i ` 2.5.5.4.5.5.F m B s.J.S.J.q.BX",
"BXH ) ! ! ! ! G   :  X X XZ.1.Y u : u I T Q ..V u.Q ! W ! ) P BX",
"BXBXBXBXBX< ' $X@   ) k.k.k.k.k.k.s.-.) G T P P aX` < BXBXBXBXBX",
"BXBXBXBXBXBX$.cXs.o       < : = i T 1.J.Y.{ 5 8XcX#.BXBXBXBXBXBX",
"BXBXBXBXBXBX=.NXNXJ.$   c NXNXcXcXY.{ 4   c $XNXNX=.BXBXBXBXBXBX",
"BXBXBXBXBXBX8.NXNXNXyX$.4 q.q.B @   . e S.NXNXNXNX8.BXBXBXBXBXBX",
"BXBXBXBXBXBXs.NXNXNXNXNXNX>XB.8.s.OXcXNXNXNXNXNXNXs.BXBXBXBXBXBX",
"BXBXBXBXBXBXBXBXBXBXBXBXBXBXBXBXBXBXBXBXBXBXBXBXBXBXBXBXBXBXBXBX",
"BXBXBXBXBXBXBXBXBXBXBXBXBXBXBXBXBXBXBXBXBXBXBXBXBXBXBXBXBXBXBXBX"
};
