/* XPM */
static char *configure-cups-16[] = {
/* columns rows colors chars-per-pixel */
"16 16 114 2",
"   c black",
".  c gray4",
"X  c #0E0E0E",
"o  c #1D1D1D",
"O  c #272727",
"+  c #3E2426",
"@  c #412325",
"#  c #4C2225",
"$  c #48383C",
"%  c #6D2528",
"&  c #753333",
"*  c #7F3F3F",
"=  c #404043",
"-  c #434343",
";  c gray28",
":  c #4C4C4C",
">  c #4D4D53",
",  c #505050",
"<  c #515151",
"1  c gray32",
"2  c #535353",
"3  c #555555",
"4  c gray34",
"5  c gray36",
"6  c gray40",
"7  c #676767",
"8  c gray44",
"9  c #717171",
"0  c gray45",
"q  c gray46",
"w  c #767676",
"e  c #777777",
"r  c #7B7272",
"t  c #7C7373",
"y  c #7D7474",
"u  c #7E7777",
"i  c gray47",
"p  c #797979",
"a  c #7F7878",
"s  c #8E3839",
"d  c #AE1D1F",
"f  c #BB0E0E",
"g  c #8C4949",
"h  c #8D5051",
"j  c #914343",
"k  c #9D5353",
"l  c #C60909",
"z  c #CD0303",
"x  c #D40000",
"c  c #DC0000",
"v  c #E40000",
"b  c #E40101",
"n  c #E70000",
"m  c #EB0000",
"M  c #FC0000",
"N  c #848484",
"B  c #868585",
"V  c gray53",
"C  c #888888",
"Z  c #8B8B8B",
"A  c gray55",
"S  c #8E8E8E",
"D  c #979797",
"F  c #989898",
"G  c gray60",
"H  c #99999B",
"J  c #9A9A9A",
"K  c gray62",
"L  c #AD9696",
"P  c #A0A0A0",
"I  c #A5A5A5",
"U  c #A7A7A7",
"Y  c #B2B2B2",
"T  c #B4B4B4",
"R  c gray71",
"E  c #B6B6B6",
"W  c #B7B7B7",
"Q  c gray72",
"!  c gray74",
"~  c gray75",
"^  c #BFBFC4",
"/  c #C0C0C0",
"(  c gray76",
")  c #C5C5C5",
"_  c #C6C6C6",
"`  c #C8C8C8",
"'  c gray79",
"]  c #CACACA",
"[  c #CDCDCD",
"{  c #CDCDD1",
"}  c #D0D0D0",
"|  c LightGray",
" . c #D5D5D5",
".. c gray84",
"X. c #D8D8D8",
"o. c #D8D8DB",
"O. c gray86",
"+. c #D8D8DC",
"@. c #DADADD",
"#. c #DCD8D8",
"$. c #DEDEE1",
"%. c #E0E0E3",
"&. c #E4E4E4",
"*. c #E5E5E7",
"=. c #EAEAEC",
"-. c #EEEEEE",
";. c #EFEFF0",
":. c #F5F5F6",
">. c #F6F6F7",
",. c #F7F7F8",
"<. c #F8F8F9",
"1. c gray98",
"2. c gray100",
"3. c None",
/* pixels */
"3.3.3.                    3.3.3.",
"3.3.3.  2.2.2.2.2.2.2.2.  3.3.3.",
"3.3.3.  <.2.2.2.2.2.2.2.  3.3.3.",
"3.3.3.F =.>.2.2.2.2.2.>.F 3.3.3.",
"3.3.3.F o.*.;.>.<.<.;.*.F 3.3.3.",
"Z Z Y F ^ { o.@.$.@.o.{ F ( Y Z ",
"I I ( K p q 0 0 0 0 p p K ' ( T ",
"&.-.-.F 3 3 3 3 3 3 3 3 F -.-.&.",
"O.&.&.Z ; ; ; ; ; ; ; ; A &.&.O.",
"` |  .~ E W W W Q Q W W / .._ ] ",
"N } [ 6 2 2 > 1 > > 2 2 6 [ Y V ",
"0 / T - > % d # @ + $ > - T ! 8 ",
": 5 , F @.h f z x M s o.G - 3 : ",
"3.3.O W #.k g * & b l X.W o 3.3.",
"3.3.. ) L b b c b c j <.) X 3.3.",
"3.3.  e C a p p V h S S q   3.3."
};
