/* XPM */
static char *configure_cups___[] = {
/* columns rows colors chars-per-pixel */
"16 16 101 2",
"   c #3E2426",
".  c #412325",
"X  c #4C2225",
"o  c #48383C",
"O  c #6D2528",
"+  c #753333",
"@  c #7F3F3F",
"#  c #404043",
"$  c #434343",
"%  c gray28",
"&  c gray31",
"*  c #4D4D53",
"=  c #505050",
"-  c #515151",
";  c gray32",
":  c #535353",
">  c #555555",
",  c gray40",
"<  c #676767",
"1  c #6F6F6F",
"2  c gray44",
"3  c #717171",
"4  c gray45",
"5  c gray46",
"6  c #767676",
"7  c #7A7171",
"8  c #7C7373",
"9  c #7C7474",
"0  c #7E7676",
"q  c gray47",
"w  c #797979",
"e  c #7E7878",
"r  c #BB0E0E",
"t  c #AE1D1F",
"y  c #8E3839",
"u  c #CD0303",
"i  c #C60909",
"p  c #D40000",
"a  c #DC0000",
"s  c #E40000",
"d  c #E40101",
"f  c #E70000",
"g  c #EB0000",
"h  c #FC0000",
"j  c #8C4949",
"k  c #914343",
"l  c #8D5051",
"z  c #9D5353",
"x  c #838383",
"c  c #858484",
"v  c #868686",
"b  c #8B8B8B",
"n  c #8D8D8D",
"m  c #979797",
"M  c #989898",
"N  c gray60",
"B  c #99999B",
"V  c #9A9A9A",
"C  c gray62",
"Z  c #AD9696",
"A  c #A0A0A0",
"S  c #A5A5A5",
"D  c #B2B2B2",
"F  c #B4B4B4",
"G  c gray71",
"H  c #B6B6B6",
"J  c #B7B7B7",
"K  c gray72",
"L  c gray74",
"P  c gray75",
"I  c #BFBFC4",
"U  c #C0C0C0",
"Y  c gray76",
"T  c #C5C5C5",
"R  c #C6C6C6",
"E  c gray79",
"W  c #CDCDCD",
"Q  c #CDCDD1",
"!  c #D0D0D0",
"~  c LightGray",
"^  c #D5D5D5",
"/  c gray84",
"(  c #D8D8D8",
")  c #D8D8DB",
"_  c #DCD8D8",
"`  c #D8D8DC",
"'  c #DADADD",
"]  c #DEDEE1",
"[  c #E0E0E3",
"{  c #E4E4E4",
"}  c #E5E5E7",
"|  c #EAEAEC",
" . c #EEEEEE",
".. c #EFEFF0",
"X. c #F5F5F6",
"o. c #F6F6F7",
"O. c #F7F7F8",
"+. c #F8F8F9",
"@. c gray98",
"#. c gray100",
"$. c None",
/* pixels */
"$.$.$.$.$.$.$.$.$.$.$.$.$.$.$.$.",
"$.$.$.$.#.#.#.#.#.#.#.#.$.$.$.$.",
"$.$.$.$.O.#.#.#.#.#.#.#.$.$.$.$.",
"$.$.$.M | O.#.#.#.#.#.O.M $.$.$.",
"$.$.$.M ` } ..O.X.X.X.} M $.$.$.",
"$.b D M Y Q ` ] ] ] ) Q M Y D $.",
"$.S Y C q 5 4 2 3 4 5 w A E Y $.",
"$. . .M > > > > > > > > M  . .$.",
"$.{ { b % % % % % % % % b { { $.",
"$.~ ^ P F J K K K K J J Y ^ R $.",
"x ! W < : = : - = = = > , E D v ",
"4 Y G # * O t X .   o * # J L 1 ",
"$.$.& M ' l r u p h y ` B # $.$.",
"$.$.$.K _ z j @ + d i ( J $.$.$.",
"$.$.$.R Z f d a d a k @.R $.$.$.",
"$.$.$.5 v w e w v l b n 5 $.$.$."
};
