/* XPM */
static char *configure_cups[] = {
/* columns rows colors chars-per-pixel */
"32 32 230 2",
"   c #130F0F",
".  c #111111",
"X  c gray9",
"o  c #191919",
"O  c gray12",
"+  c #371617",
"@  c #3F1314",
"#  c #3B181A",
"$  c #222222",
"%  c #2D2223",
"&  c #292224",
"*  c #2A2224",
"=  c #2C2224",
"-  c #28282A",
";  c #2E2929",
":  c #2A2A2C",
">  c #302223",
",  c #3F3F3F",
"<  c #550E0F",
"1  c #450F10",
"2  c #411112",
"3  c #4D1C1C",
"4  c #5D1717",
"5  c #511B1B",
"6  c #6B0C0D",
"7  c #7B0707",
"8  c #701313",
"9  c #4E2122",
"0  c #472A2A",
"q  c #592122",
"w  c #4F3739",
"e  c #553A3A",
"r  c #414141",
"t  c #434040",
"y  c #444444",
"u  c gray27",
"i  c #464646",
"p  c gray28",
"a  c #484848",
"s  c #494949",
"d  c gray30",
"f  c gray31",
"g  c #53474C",
"h  c #515151",
"j  c gray32",
"k  c #555555",
"l  c gray34",
"z  c #585858",
"x  c #5A5A5A",
"c  c #5B5B5B",
"v  c gray36",
"b  c #634949",
"n  c #604E50",
"m  c gray40",
"M  c #686868",
"N  c DimGray",
"B  c #6A6A6A",
"V  c gray42",
"C  c #6D6D6D",
"Z  c #7C6A6A",
"A  c #7D6B6B",
"S  c #7E6C6C",
"D  c #7F6E6E",
"F  c gray46",
"G  c gray47",
"H  c #797979",
"J  c gray48",
"K  c #7B7B7B",
"L  c #7C7C7C",
"P  c gray49",
"I  c #7E7E7E",
"U  c #7F7F7F",
"Y  c #8E0909",
"T  c #8C0D0D",
"R  c #8F0E0E",
"E  c #9F0303",
"W  c #990606",
"Q  c #9A0707",
"!  c #9F0404",
"~  c #A50101",
"^  c #A70101",
"/  c #AE0000",
"(  c #B10000",
")  c #B50000",
"_  c #BD0000",
"`  c #C10000",
"'  c #C90000",
"]  c #CB0000",
"[  c #CE0000",
"{  c #CF0000",
"}  c #D20000",
"|  c #D50000",
" . c #D70000",
".. c #DF0000",
"X. c #E80000",
"o. c #EF0000",
"O. c #F10000",
"+. c #FD0000",
"@. c red",
"#. c #807171",
"$. c #837474",
"%. c #857A7A",
"&. c #8A7D7D",
"*. c #808081",
"=. c #838383",
"-. c #868686",
";. c gray53",
":. c #8B8B8B",
">. c gray55",
",. c gray56",
"<. c #898992",
"1. c #8A8A93",
"2. c #939393",
"3. c #959595",
"4. c #9E9494",
"5. c #989898",
"6. c gray60",
"7. c gray61",
"8. c #9D9D9D",
"9. c gray62",
"0. c #9F9F9F",
"q. c #A0A0A0",
"w. c gray63",
"e. c #A2A2A2",
"r. c gray64",
"t. c #A4A4A4",
"y. c #A5A5A5",
"u. c #A7A7A7",
"i. c #A8A4A4",
"p. c #A9A9A9",
"a. c #A9A9AA",
"s. c #AAAAAA",
"d. c gray67",
"f. c #ACACAC",
"g. c #AEAEAE",
"h. c #AFAFAF",
"j. c #B1B1B1",
"k. c #B2B2B2",
"l. c gray70",
"z. c #B4B4B4",
"x. c gray71",
"c. c #B6B6B7",
"v. c #B3B3B8",
"b. c gray73",
"n. c #BBBBBB",
"m. c #BABABF",
"M. c #BCBCBC",
"N. c gray74",
"B. c gray",
"V. c gray75",
"C. c #BFBFC4",
"Z. c #C0C0C0",
"A. c #C1C1C1",
"S. c #C3C3C3",
"D. c #C0C0C5",
"F. c gray77",
"G. c #C5C5C5",
"H. c gray78",
"J. c #C5C5CA",
"K. c #C6C6CB",
"L. c #C7C7CB",
"P. c #C8C8C8",
"I. c gray79",
"U. c #CACACA",
"Y. c #CBCBCB",
"T. c #CACACE",
"R. c gray80",
"E. c #CDCDCD",
"W. c #CECECE",
"Q. c #CECECF",
"!. c gray81",
"~. c #CCCCD0",
"^. c #CDCDD1",
"/. c #CECED2",
"(. c #D0D0D0",
"). c gray82",
"_. c #D2D2D2",
"`. c LightGray",
"'. c #D0D0D4",
"]. c #D2D2D6",
"[. c #D3D3D6",
"{. c #D3D3D7",
"}. c gray83",
"|. c #D5D5D5",
" X c #D4D4D7",
".X c gray84",
"XX c #D7D7D7",
"oX c #D8D8D8",
"OX c gray85",
"+X c #D8D8DB",
"@X c #D8D8DC",
"#X c #DBDBDE",
"$X c #DDDDDD",
"%X c #DCDCDF",
"&X c #DEDEDF",
"*X c #DFDFDF",
"=X c #DEDEE1",
"-X c #DFDFE2",
";X c gray88",
":X c #E0E0E2",
">X c #E0E0E3",
",X c gray89",
"<X c #E1E1E4",
"1X c #E4E4E4",
"2X c #E4E4E6",
"3X c #E5E5E7",
"4X c #E7E7E8",
"5X c #E7E7E9",
"6X c gray91",
"7X c #E8E8EA",
"8X c #EAEAEB",
"9X c #EAEAEC",
"0X c #EBEBED",
"qX c #ECECED",
"wX c #EEEEEE",
"eX c #EFEFF0",
"rX c #F2F2F3",
"tX c #F2F2F4",
"yX c #F5F5F6",
"uX c #F6F6F7",
"iX c #F7F7F8",
"pX c #F8F8F8",
"aX c #F8F8F9",
"sX c #FAFAFB",
"dX c #FBFBFB",
"fX c gray99",
"gX c #FDFDFD",
"hX c #FEFEFE",
"jX c gray100",
"kX c None",
/* pixels */
"kXkXkXkXkXkXkXkXkXkXkXkXkXkXkXkXkXkXkXkXkXkXkXkXkXkXkXkXkXkXkXkX",
"kXkXkXkXkXkXkXkXkXkXkXkXkXkXkXkXkXkXkXkXkXkXkXkXkXkXkXkXkXkXkXkX",
"kXkXkXkXkXkXkXkXgXgXgXgXgXgXgXgXgXgXgXgXgXgXgXgXkXkXkXkXkXkXkXkX",
"kXkXkXkXkXkXkXkXgXgXgXgXgXgXgXgXgXgXgXgXgXgXgXgXkXkXkXkXkXkXkXkX",
"kXkXkXkXkXkXkXkXiXgXgXgXgXgXgXgXgXgXgXgXgXgXgXgXkXkXkXkXkXkXkXkX",
"kXkXkXkXkXkXkXkXtXiXgXgXgXgXgXgXgXgXgXgXgXgXgXaXkXkXkXkXkXkXkXkX",
"kXkXkXkXkXkXkX2.9XrXaXaXgXgXgXgXgXgXgXgXgXgXaXrX3.kXkXkXkXkXkXkX",
"kXkXkXkXkXkXkX,.,X7XrXyXaXgXfXgXgXgXgXfXaXyXeX7X2.kXkXkXkXkXkXkX",
"kXkXkXkXkXkXkX2.oX-X4X9XeXtXyXiXiXiXtXtXeX9X4X-X2.kXkXkXkXkXkXkX",
"kXkXkXkXkXkXkX,.^.{.#X-X2X4X9X9X9X9X9X4X1X-X#X}.,.kXkXkXkXkXkXkX",
"kXkX:.0.j.M.j.=.C.J.^.{.#X#X-X-X2X-X-X=X#X{.^.J.=.x.Z.M.j.w.kXkX",
"kXkX3.p.M.M.g.F v.C.C.J.T.^.^.].].]./.^.T.J.C.C.F g.Z.Z.M.p.kXkX",
"kXkX0.j.M.Z.g.d a p a p p p p y y p p p p p a a d x.F.Z.M.x.kXkX",
"kXZ.F.).}.oXP.W.).).).).).).}.).).].).).}.).).).W.W.oX}.}.).P.kX",
"kX,XwXwXwXwX).z k k k k k k k k k k k k k k k k z oXwXwXwXwX,XkX",
"kX1XwXwXwXwXW.z k k k k k k k k k k k k k k k k k ).wXwXwXwX1XkX",
"kX;X6X6X7X1XF.d h d h d h d h d d f f f d d h d h P.7X6X6X6X*XkX",
"kX}.;X,X,X,XM.y , , , , , , , , , , , , , y , , y Z.$X,X;X;XXXkX",
"kXZ.P.P.P.W.V.0.0.0.w.w.w.w.y.y.y.y.t.w.w.w.w.w.0.Z.).!.!.W.F.kX",
"kX}.$X$X$X$XoX).).).).).}.).}.).).}.).).).).).`.).oX$X$Xp.}.}.kX",
"kXZ.}.}.}.}.g.P P P P P H H H H H H H L H P P P =.p.}.}.x.).F.kX",
"kXz.R.W.W.F.X . . . . . . . . . . . . . . . . . . o F.R.6.Z.l.kX",
"kXy.F.F.F.g.$ : : : * q q 9 > % = = = = * - : : - $ j.F.n.F.y.kX",
"kX5.n.n.n.p.h <.1.<.# @.@.} 6 < 1 2 @ + g <.<.1.<.h y.n.n.n.6.kX",
"kXz V V V V m J.J.K.w ..@.@.@.@.@.@.@.@.T b K.K.J.m V m V C v kX",
"kXkXkXkXkXO C 1X4X4X^.0 8 T W ~ / ) O.@.@.5 -X4X1XC o kXkXkXkXkX",
"kXkXkXkXkXkXH iXiXeXh.p.=.C z y ;   ! @.@.T x.iXaXH kXkXkXkXkXkX",
"kXkXkXkXkXkXP gXgX&.7 ! E ! ~ ( _ ' o.@.@.Q j.gXgXP kXkXkXkXkXkX",
"kXkXkXkXkXkX:.gXgXb X.@.@.@.@.@.@.@.@.@.@.3 wXgXgX:.kXkXkXkXkXkX",
"kXkXkXkXkXkX6.gXgXe [  .|  .| | } [ ' ` 4 4.gXgXgX6.kXkXkXkXkXkX",
"kXkXkXkXkXkX;.W.W.i.A A A A A S #.#.$.%.j.).).W.W.;.kXkXkXkXkXkX",
"kXkXkXkXkXkXkXkXkXkXkXkXkXkXkXkXkXkXkXkXkXkXkXkXkXkXkXkXkXkXkXkX"
};
