/* XPM */
static char *configure_cups[] = {
/* columns rows colors chars-per-pixel */
"32 32 241 2 ",
"   c black",
".  c #040404",
"X  c gray2",
"o  c #060606",
"O  c #0B0B0B",
"+  c #0C0C0D",
"@  c gray6",
"#  c #111111",
"$  c gray7",
"%  c #161616",
"&  c gray9",
"*  c #181819",
"=  c #1B1B1B",
"-  c #1D1D1D",
";  c #1D1D1E",
":  c #1E1E1E",
">  c #202020",
",  c gray13",
"<  c #222222",
"1  c #222223",
"2  c #232323",
"3  c #232324",
"4  c gray15",
"5  c gray17",
"6  c #2A2A2C",
"7  c #2B2B2D",
"8  c #2F2F2F",
"9  c #2F2F31",
"0  c #313132",
"q  c #323232",
"w  c #343434",
"e  c #373737",
"r  c #393939",
"t  c #39393A",
"y  c #3A3A3A",
"u  c gray23",
"i  c #3B3B3C",
"p  c #3B3B3F",
"a  c gray24",
"s  c gray25",
"d  c #414141",
"f  c #414142",
"g  c gray26",
"h  c #434344",
"j  c #444444",
"k  c gray27",
"l  c #464646",
"z  c gray28",
"x  c #484848",
"c  c #494949",
"v  c gray29",
"b  c #4B4B4B",
"n  c #4E4E4E",
"m  c #4F4F53",
"M  c #505050",
"N  c #515151",
"B  c #535353",
"V  c #545455",
"C  c #555555",
"Z  c #545456",
"A  c #555556",
"S  c #565657",
"D  c gray34",
"F  c #535358",
"G  c #545459",
"H  c #585858",
"J  c #5A5A5A",
"K  c gray36",
"L  c gray37",
"P  c #5F5F5F",
"I  c gray38",
"U  c #626262",
"Y  c #636364",
"T  c #646466",
"R  c #656566",
"E  c gray40",
"W  c #676767",
"Q  c #676769",
"!  c #686868",
"~  c #686869",
"^  c DimGray",
"/  c #6A6A6A",
"(  c #6D6D6D",
")  c gray43",
"_  c #6F6F6F",
"`  c #6A6A71",
"'  c gray44",
"]  c #767676",
"[  c #777777",
"{  c #797979",
"}  c gray48",
"|  c #7B7B7B",
" . c #7C7C7C",
".. c gray49",
"X. c #7C7C7E",
"o. c #7E7E7E",
"O. c gray50",
"+. c #7C7C80",
"@. c #7F7F81",
"#. c #808080",
"$. c #818181",
"%. c #838383",
"&. c #848484",
"*. c #848485",
"=. c gray52",
"-. c #8A8A8B",
";. c #8B8B8B",
":. c #8A8A8E",
">. c gray55",
",. c #8C8C8E",
"<. c #8E8E8E",
"1. c gray56",
"2. c #888891",
"3. c #8D8D91",
"4. c #8D8D96",
"5. c #8F8F98",
"6. c #939393",
"7. c #959595",
"8. c #969697",
"9. c #979797",
"0. c gray60",
"q. c #9A9A9A",
"w. c #9B9B9B",
"e. c gray61",
"r. c #9D9D9D",
"t. c #9C9C9F",
"y. c gray62",
"u. c #9F9F9F",
"i. c #A0A0A0",
"p. c gray63",
"a. c #A2A2A2",
"s. c #A4A4A4",
"d. c #A5A5A5",
"f. c #A5A5A6",
"g. c #A6A6A7",
"h. c #A7A7A7",
"j. c gray66",
"k. c #AAAAAB",
"l. c #ACACAC",
"z. c gray68",
"x. c #AEAEAE",
"c. c #AFAFAF",
"v. c #ADADB1",
"b. c #B1B1B1",
"n. c #B2B2B2",
"m. c gray70",
"M. c #B0B0B6",
"N. c #B4B4B4",
"B. c gray71",
"V. c #B6B6B6",
"C. c #B7B7B7",
"Z. c #B5B5B8",
"A. c #B7B7BC",
"S. c #B9B9B9",
"D. c gray73",
"F. c #BBBBBC",
"G. c #BCBCBC",
"H. c gray74",
"J. c gray75",
"K. c #C0C0BF",
"L. c #BCBCC2",
"P. c #BDBDC2",
"I. c #C0C0C0",
"U. c #C1C1C1",
"Y. c gray76",
"T. c #C3C3C3",
"R. c #C1C1C6",
"E. c gray77",
"W. c #C5C5C5",
"Q. c #C6C6C6",
"!. c #C4C4C9",
"~. c #C5C5CA",
"^. c gray79",
"/. c #CACACA",
"(. c #CBCBCB",
"). c #C8C8CD",
"_. c #CACACE",
"`. c #CBCBCF",
"'. c gray80",
"]. c #CDCDCD",
"[. c #CCCCCE",
"{. c #CECECE",
"}. c gray81",
"|. c #CCCCD0",
" X c #CECED2",
".X c #CFCFD3",
"XX c gray82",
"oX c #D2D2D2",
"OX c #D2D2D3",
"+X c LightGray",
"@X c #D1D1D5",
"#X c #D3D3D6",
"$X c gray83",
"%X c #D4D4D5",
"&X c #D5D5D5",
"*X c #D4D4D7",
"=X c gray84",
"-X c #D7D7D7",
";X c #D6D6DA",
":X c #D7D7DA",
">X c #D8D8D8",
",X c gray85",
"<X c #D8D8DB",
"1X c #DADADA",
"2X c #DADADD",
"3X c #DDDDDD",
"4X c #DDDDE0",
"5X c #DEDEE0",
"6X c gray88",
"7X c #E1E1E3",
"8X c gray89",
"9X c #E3E3E5",
"0X c #E3E3E6",
"qX c #E4E4E4",
"wX c #E5E5E6",
"eX c #E5E5E7",
"rX c #E6E6E8",
"tX c #E9E9E9",
"yX c #E8E8EA",
"uX c #E9E9EB",
"iX c #EAEAEB",
"pX c #EAEAEC",
"aX c #ECECEC",
"sX c #ECECED",
"dX c #EDEDEF",
"fX c #EEEEEE",
"gX c #EFEFF0",
"hX c #F1F1F2",
"jX c #F2F2F3",
"kX c #F2F2F4",
"lX c #F3F3F4",
"zX c #F6F6F7",
"xX c gray97",
"cX c #F8F8F9",
"vX c #F9F9F9",
"bX c gray98",
"nX c #FAFAFB",
"mX c #FDFDFD",
"MX c #FEFEFE",
"NX c gray100",
"BX c None",
/* pixels */
"BXBXBXBXBXBXBXBXBXBXBXBXBXBXBXBXBXBXBXBXBXBXBXBXBXBXBXBXBXBXBXBX",
"BXBXBXBXBXBXBXBXBXBXBXBXBXBXBXBXBXBXBXBXBXBXBXBXBXBXBXBXBXBXBXBX",
"BXBXBXBXBXBXBXBXNXNXNXNXNXNXNXNXNXNXNXNXNXNXNXNXBXBXBXBXBXBXBXBX",
"BXBXBXBXBXBXBXBXNXNXNXNXNXNXNXNXNXNXNXNXNXNXNXNXBXBXBXBXBXBXBXBX",
"BXBXBXBXBXBXBXBXcXNXNXNXNXNXNXB.q.c.S.cXb.{.NXcXBXBXBXBXBXBXBXBX",
"BXBXBXBXBXBXBXBXlXcXNXNXq.Y.P c ! H e <   . u.lXBXBXBXBXBXBXBXBX",
"BXBXBXBXBXBXBX6.uXhXxX@X6.f   0 I =.G.fX8.B.qXuX6.BXBXBXBXBXBXBX",
"BXBXBXBXBXBXBX1.8XyXfXh.=.  : lXcXcXcXxXlXfXuX7X1.BXBXBXBXBXBXBX",
"BXBXBXBXBXBXBX6.;X3X{.h : & F.lXhXlXhXuXuXqX5X;X6.BXBXBXBXBXBXBX",
"BXBXBXBXBXBXBX1._.@XZ Z o @XqXrXrXrX0X7X5X>X@X_.1.BXBXBXBXBXBXBX",
"BXBXq.c.J.J.B.$.L.v.@.f f ;X2X>X2X2X2X*X.X_.!.L.$.B.Y.J.c.q.BXBX",
"BXBXs.S.J.Y.c.] M.3.:.0 +._.|.{._._.~.~.R.L.A.m.] b.Y.J.S.s.BXBX",
"BXBXc.S.Y.Q.b.n c x z z z l k k l l l l z z z z n B.Q.Y.J.c.BXBX",
"BXQ.{.$X$X>X{.{.oXoXoX+X+X+X+X+X@XoXoX$XoX+X+XXX{.(.>X$XoX{.Q.BX",
"BX8XfXfXfXfX$XH V V V D C C C C D V V V V D V V H $XfXfXfXfX8XBX",
"BXqXfXfXfXfX{.H V V V V C C C C V V D V V D V V H $XfXfXfXfXqXBX",
"BX6XtXyXtXyXQ.N N N N n N V I I U U D M n M M n N (.yXtXtXtX6XBX",
"BX>X6X3X6X8XS.f f i d d f e t t u r 8 d d d d d f K.6X6X6X6X>XBX",
"BXY.(.(.(.(.J.y.y.y.y.i.>.P I ' ' L L >.a.a.i.i.y.T.XX{.{.{.Q.BX",
"BX$X3X3X3X3X>XoXoXoXoXoXoXoXoXoX+XoXoX+XoXoXoX+XoX>X3X3XK.$X$XBX",
"BXY.$X$X$X$Xc.@.#.X.#...| | } [ { } | X.X.X.X.X.X.c.$XoXm.{.Q.BX",
"BXb.{.{.{.E.& $ # # # # $ $ $ $ # # $ $ # # @ $ $ & Q.{.K.J.b.BX",
"BXs.Q.T.Y.c.< < < < < < 1 1 7 5 5 5 5 5 5 7 7 7 5 < c.Q.S.Q.s.BX",
"BXq.S.J.J.s.Z =   O Z 0 O   @ i ` 2.5.5.5.5.5.Z m C s.J.F.J.q.BX",
"BXH ! ) ! ! ! V   : |.|.|.A.:.I t : i I R Q X.V t.Q ! W ! ) P BX",
"BXBXBXBXBX< ' $X@   ' k.k.k.k.k.k.s.;.) V R P P yX' < BXBXBXBXBX",
"BXBXBXBXBXBX$.cXs.o       > : = i Q 3.J.Y.} 5 8XcX#.BXBXBXBXBXBX",
"BXBXBXBXBXBX=.NXNXJ.$   b NXNXmXcXY.[ 4   c $XNXNX=.BXBXBXBXBXBX",
"BXBXBXBXBXBX8.NXNXNXyX$.4 q.q.N @   . e S.NXNXNXNX8.BXBXBXBXBXBX",
"BXBXBXBXBXBXs.NXNXNXNXNXNX>XC.8.s.oXcXNXNXNXNXNXNXs.BXBXBXBXBXBX",
"BXBXBXBXBXBXBXBXBXBXBXBXBXBXBXBXBXBXBXBXBXBXBXBXBXBXBXBXBXBXBXBX",
"BXBXBXBXBXBXBXBXBXBXBXBXBXBXBXBXBXBXBXBXBXBXBXBXBXBXBXBXBXBXBXBX"
};
