/* XPM */
static char *configure_cups[] = {
/* columns rows colors chars-per-pixel */
"32 32 248 2",
"   c black",
".  c #040404",
"X  c gray2",
"o  c #060606",
"O  c #0B0B0B",
"+  c #0C0C0D",
"@  c gray6",
"#  c #111111",
"$  c gray7",
"%  c #161616",
"&  c gray9",
"*  c #181819",
"=  c #1B1B1B",
"-  c gray11",
";  c #1D1D1E",
":  c #1E1E1E",
">  c #202020",
",  c gray13",
"<  c #212122",
"1  c #212123",
"2  c #222222",
"3  c #222224",
"4  c gray15",
"5  c #2A2A2A",
"6  c #2A2A2B",
"7  c gray17",
"8  c #2A2A2C",
"9  c #2F2F31",
"0  c #313131",
"q  c #323232",
"w  c #323233",
"e  c #373737",
"r  c #393939",
"t  c #39393A",
"y  c #3B3B3C",
"u  c #3B3B3F",
"i  c #3C3C3D",
"p  c #3F3F3F",
"a  c gray25",
"s  c #414141",
"d  c #424243",
"f  c #444444",
"g  c gray27",
"h  c #464646",
"j  c gray28",
"k  c #484848",
"l  c #494949",
"z  c gray29",
"x  c #4B4B4B",
"c  c gray30",
"v  c gray31",
"b  c #4F4F53",
"n  c #515151",
"m  c gray32",
"M  c #535353",
"N  c #555555",
"B  c #545456",
"V  c #555556",
"C  c #565656",
"Z  c gray34",
"A  c #535358",
"S  c #545459",
"D  c #585858",
"F  c #5A5A5A",
"G  c gray36",
"H  c #5D5D5E",
"J  c #5E5E5F",
"K  c #5F5F5F",
"L  c gray38",
"P  c gray39",
"I  c #636364",
"U  c #656565",
"Y  c #646466",
"T  c #656566",
"R  c #676767",
"E  c #676769",
"W  c #686868",
"Q  c #686869",
"!  c DimGray",
"~  c #6A6A6A",
"^  c #6D6D6D",
"/  c #6D6D6E",
"(  c #6E6E6F",
")  c #6A6A71",
"_  c #6F6F70",
"`  c gray46",
"'  c #777777",
"]  c gray47",
"[  c #797979",
"{  c gray48",
"}  c #7B7B7B",
"|  c #7C7C7C",
" . c gray49",
".. c #7C7C7E",
"X. c #7E7E7E",
"o. c #7F7F7F",
"O. c #808080",
"+. c #818181",
"@. c #808082",
"#. c #818183",
"$. c #838383",
"%. c #848484",
"&. c gray52",
"*. c gray54",
"=. c #8B8B8B",
"-. c gray55",
";. c #8D8D8D",
":. c #8C8C8E",
">. c #8E8E8F",
",. c gray56",
"<. c #888891",
"1. c #8D8D90",
"2. c #8D8D96",
"3. c #8F8F98",
"4. c #939393",
"5. c #909094",
"6. c gray58",
"7. c #959595",
"8. c #979797",
"9. c #989898",
"0. c gray60",
"q. c #9A9A9A",
"w. c #9B9B9B",
"e. c gray61",
"r. c #9D9D9D",
"t. c #9C9C9F",
"y. c gray62",
"u. c #9F9F9F",
"i. c #A0A0A0",
"p. c gray63",
"a. c #A2A2A2",
"s. c gray64",
"d. c #A5A5A5",
"f. c gray65",
"g. c #A7A7A7",
"h. c #A7A7A8",
"j. c #A8A8A9",
"k. c #A9A9A9",
"l. c #A9A9AA",
"z. c #AAAAAA",
"x. c gray67",
"c. c #ACACAC",
"v. c #AEAEAE",
"b. c #AFAFAF",
"n. c #B1B1B1",
"m. c #B0B0B3",
"M. c #B2B2B2",
"N. c gray70",
"B. c #B4B4B4",
"V. c gray71",
"C. c #B6B6B6",
"Z. c #B3B3B8",
"A. c #B5B5B8",
"S. c #B9B9B9",
"D. c gray73",
"F. c #BBBBBB",
"G. c #BABABF",
"H. c #BCBCBC",
"J. c gray74",
"K. c gray",
"L. c #BEBEBF",
"P. c gray75",
"I. c #BFBFC4",
"U. c #C0C0C0",
"Y. c #C1C1C1",
"T. c gray76",
"R. c #C3C3C3",
"E. c #C0C0C5",
"W. c gray77",
"Q. c #C5C5C5",
"!. c gray78",
"~. c #C5C5CA",
"^. c #C7C7CB",
"/. c #C8C8C8",
"(. c gray79",
"). c #CACACA",
"_. c #CBCBCB",
"`. c #CACACE",
"'. c gray80",
"]. c #CDCDCD",
"[. c #CECECE",
"{. c #CECECF",
"}. c gray81",
"|. c #CCCCD0",
" X c #CDCDD1",
".X c #CECED2",
"XX c #D0D0D0",
"oX c gray82",
"OX c #D2D2D2",
"+X c LightGray",
"@X c #D0D0D4",
"#X c #D3D3D4",
"$X c #D2D2D6",
"%X c #D3D3D6",
"&X c #D3D3D7",
"*X c gray83",
"=X c #D5D5D5",
"-X c #D4D4D7",
";X c gray84",
":X c #D7D7D7",
">X c #D7D7D9",
",X c #D8D8D8",
"<X c gray85",
"1X c #D8D8DB",
"2X c #D8D8DC",
"3X c #DBDBDE",
"4X c #DDDDDD",
"5X c #DCDCDF",
"6X c #DFDFDF",
"7X c #DEDEE1",
"8X c #DFDFE2",
"9X c gray88",
"0X c #E0E0E2",
"qX c #E0E0E3",
"wX c #E2E2E3",
"eX c gray89",
"rX c #E1E1E4",
"tX c #E4E4E4",
"yX c #E4E4E6",
"uX c #E5E5E7",
"iX c #E7E7E9",
"pX c gray91",
"aX c #E8E8EA",
"sX c #E9E9EA",
"dX c #EAEAEB",
"fX c gray92",
"gX c #EAEAEC",
"hX c #EBEBED",
"jX c #ECECED",
"kX c #EEEEEE",
"lX c #EFEFF0",
"zX c gray94",
"xX c #F1F1F2",
"cX c #F2F2F3",
"vX c #F2F2F4",
"bX c gray96",
"nX c #F5F5F6",
"mX c #F6F6F7",
"MX c #F7F7F8",
"NX c #F8F8F8",
"BX c #F8F8F9",
"VX c #F9F9F9",
"CX c #FAFAFB",
"ZX c gray99",
"AX c #FDFDFD",
"SX c #FEFEFE",
"DX c gray100",
"FX c None",
/* pixels */
"FXFXFXFXFXFXFXFXFXFXFXFXFXFXFXFXFXFXFXFXFXFXFXFXFXFXFXFXFXFXFXFX",
"FXFXFXFXFXFXFXFXFXFXFXFXFXFXFXFXFXFXFXFXFXFXFXFXFXFXFXFXFXFXFXFX",
"FXFXFXFXFXFXFXFXSXSXSXSXSXSXSXSXSXSXSXSXSXSXSXSXFXFXFXFXFXFXFXFX",
"FXFXFXFXFXFXFXFXSXSXSXSXSXSXSXSXSXSXSXSXSXSXSXSXFXFXFXFXFXFXFXFX",
"FXFXFXFXFXFXFXFXBXSXSXSXSXSXSXV.q.v.S.BXn.'.SXSXFXFXFXFXFXFXFXFX",
"FXFXFXFXFXFXFXFXvXBXSXSXu.U.K l ~ D e ,   . a.MXFXFXFXFXFXFXFXFX",
"FXFXFXFXFXFXFX4.gXcXMX#X4.s   q L &.S.cXq.S.sXcX7.FXFXFXFXFXFXFX",
"FXFXFXFXFXFXFX,.rXsXlXk.&.  ; mXSXSXSXBXNXmXkXsX,.FXFXFXFXFXFXFX",
"FXFXFXFXFXFXFX4.,X8X Xf ; % I.mXMXMXvXvXlXgXiX8X4.FXFXFXFXFXFXFX",
"FXFXFXFXFXFXFX,. X&XC C X >XsXgXgXgXgXiXrX8X3X*X,.FXFXFXFXFXFXFX",
"FXFX=.u.n.H.n.$.I.n.$.s d 7X8XeXrX8X8X7X3X&X`.^.$.V.U.H.n.a.FXFX",
"FXFX7.k.H.H.v.` Z.2.1.w @. X.X&X#X#X.X X`.^.I.I.` v.U.U.H.k.FXFX",
"FXFXu.n.H.U.v.c l l j f j f f f d f j j f l l l c V.W.U.H.V.FXFX",
"FXU.W.oX*X,X/.[.oXoXoXoXoX#XoXoX*X#X#XoXoXoXoXoX[.[.,X*X*XoX/.FX",
"FXeXkXkXkXkXoXD C C C C C C C C M C C C C M C C D ,XkXkXkXkXeXFX",
"FXtXkXkXkXkX[.D C M M C C C M C C C M C C M C C C oXkXkXkXkXtXFX",
"FX4XpXpXpXpXW.M v v c M M C L L L L C c b c v c M !.pXpXpXpX9XFX",
"FX,X9XeX9X9XH.a a i a i i * 7 e r e q s p p a a s U.9X9X9X9X*XFX",
"FXU.!./.'.'.I.e.u.u.a.u.-.C L Y ~ L J ,.s.a.u.a.u.W.}.}.[.[.W.FX",
"FX*X4X4X4X4X,X*XoXoXoX*XoXoXoXoXoXoXoXoXoXoXoXoXoX,X4X4Xk.,X*XFX",
"FXU.*X*XoX*Xv.| O.| | | ] | ] ] ] ] ] ] | | | | | v.*XoXV.oXU.FX",
"FXB.'.[.[.W.% $ $ # $ $ $ $ $ $ $ $ $ $ $ $ $ $ $ * W.[.q.U.V.FX",
"FXd.W.W.W.n., 3 , , , , , 3 7 8 8 8 8 8 8 8 8 8 7 , b.W.S.W.d.FX",
"FXq.S.H.S.h.M *   O S 9 O   O u ) <.3.3.3.3.2.A b C g.H.H.S.q.FX",
"FXD ~ ~ ~ ~ ~ C   ;  X X.XA.:.Y r ; r Y Y E | C t.E ~ R ~ ( D FX",
"FXFXFXFXFX, _ oX@   ( k.k.x.x.k.k.d.=.( C R J K sX( , FXFXFXFXFX",
"FXFXFXFXFXFX$.MXh.X       > ; * i R 1.H.U.] 7 rXBXO.FXFXFXFXFXFX",
"FXFXFXFXFXFX%.SXSXH.$   x SXSXSXBXI.] 4   l *XSXSX&.FXFXFXFXFXFX",
"FXFXFXFXFXFX7.SXSXSXsX$.4 9.q.M @   X e S.SXSXSXSX7.FXFXFXFXFXFX",
"FXFXFXFXFXFXd.SXSXSXSXSXZX,XV.7.a.}.NXSXSXSXSXSXSXd.FXFXFXFXFXFX",
"FXFXFXFXFXFXFXFXFXFXFXFXFXFXFXFXFXFXFXFXFXFXFXFXFXFXFXFXFXFXFXFX",
"FXFXFXFXFXFXFXFXFXFXFXFXFXFXFXFXFXFXFXFXFXFXFXFXFXFXFXFXFXFXFXFX"
};
